<svg viewBox="-60 50 1770 1770" fill="none" xmlns="http://www.w3.org/2000/svg">
  <path d="M1365.18 1282.7C1407.37 1269.92 1443.9 1303.4 1440.67 1347.37C1434.77 1427.61 1405.28 1518.52 1332.9 1584.74C1411.9 1374.99 1254.86 1369.89 1145.73 1386.07C1226.58 1340.72 1303.97 1301.26 1365.18 1282.7Z" fill="url(#zmk1)"/>
  <path d="M1099.74 1135.7C1321.93 1025.97 1618.88 966.756 1644.84 1145.87C1660.9 1256.63 1589.94 1441.55 1341.79 1637.98C1292.98 1676.62 1170.94 1751.36 1099.74 1768.12C1028.56 1784.89 822.735 1684.75 839.403 1652.22C1297.84 1756.9 1427.56 1525.76 1440.67 1347.37C1443.9 1303.4 1407.37 1269.92 1365.18 1282.7C1223.94 1325.52 996.568 1479.61 839.403 1560.7C650.24 1658.3 526.991 1742.5 318.714 1762.02C318.428 1761.34 318.141 1760.64 317.852 1759.94C287.514 1682.85 308.203 1544.16 471.488 1367.58C452.325 1394.19 432.721 1425.17 448.888 1432.59C527.842 1468.84 636.923 1364.28 1099.74 1135.7Z" fill="url(#zmk2)"/>
  <path d="M642.136 487.012C1111.98 271.462 1480.13 493.115 1506.57 637.491C1718.09 445.526 1624.54 282.308 1551.32 224.694C1330.03 101.057 791.977 154.198 550.612 196.223C335.511 145.291 237.685 264.107 171.072 331.884C161.195 341.935 150.109 350.68 138.786 359.068C40.9756 431.521 17.0693 490.239 17.7112 511.414C39.607 633.377 250.536 607.304 398.729 578.009C410.456 575.692 422.465 575.15 434.407 575.676C556.033 581.034 611.735 523.227 642.136 487.012Z" fill="url(#zmk3)"/>
  <path d="M1197.96 415.919C1376.36 457.264 1492.17 558.843 1506.57 637.491C1506.93 637.167 1507.28 636.841 1507.64 636.517C1507.37 636.835 1507.09 637.142 1506.79 637.434C1469.82 673.73 1309.28 789.242 888.195 1044.2C343.475 1374 269.877 1643.4 318.689 1762.02C13.6955 1758.81 -14.2246 1605.44 4.50283 1545.35C4.81201 1544.35 5.13132 1543.37 5.46034 1542.4C101.149 1109.26 705.234 805.558 878.024 710.701C1003.97 641.561 1138.37 550.731 1185.16 503.283C1207.58 472.78 1205.55 430.077 1197.36 415.842C1197.56 415.867 1197.76 415.893 1197.96 415.919Z" fill="url(#zmk4)"/>
  <defs>
    <linearGradient id="zmk1" x1="1412.11" y1="148.717" x2="462.149" y2="1458.53" gradientUnits="userSpaceOnUse"><stop offset="0.129808" stop-color="#BF4B00"/><stop offset="1" stop-color="#FF9000"/></linearGradient>
    <linearGradient id="zmk2" x1="962.381" y1="1640.78" x2="-6.9166" y2="1583.06" gradientUnits="userSpaceOnUse"><stop stop-color="#FF9000"/><stop offset="0.475962" stop-color="#FF7D00"/><stop offset="0.985577" stop-color="#BF4B00"/></linearGradient>
    <linearGradient id="zmk3" x1="4.38413e-05" y1="959" x2="1647" y2="959" gradientUnits="userSpaceOnUse"><stop stop-color="#D15200"/><stop offset="0.514423" stop-color="#FF7D00"/><stop offset="1" stop-color="#FF9000"/></linearGradient>
    <linearGradient id="zmk4" x1="752.483" y1="415.842" x2="752.483" y2="1762.02" gradientUnits="userSpaceOnUse"><stop stop-color="#BF4B00"/><stop offset="0.504808" stop-color="#FF7D00"/><stop offset="1" stop-color="#FF9000"/></linearGradient>
  </defs>
</svg>
